<svg width="600" height="140" viewBox="0 0 600 140" xmlns="http://www.w3.org/2000/svg">
    <rect width="600" height="140" rx="16" fill="#1a1730" />
    <rect x="8" y="8" width="124" height="124" rx="26" fill="#534AB7" />
    <circle cx="70" cy="53" r="23" fill="none" stroke="#ffffff" stroke-width="4.5" />
    <circle cx="70" cy="53" r="7" fill="#ffffff" />
    <line x1="70" y1="76" x2="70" y2="96" stroke="#ffffff" stroke-width="4.5" stroke-linecap="round" />
    <line x1="57" y1="96" x2="83" y2="96" stroke="#ffffff" stroke-width="4.5" stroke-linecap="round" />
    <path d="M49 53 Q35 53 32 68 Q29 83 43 90" fill="none" stroke="#AFA9EC" stroke-width="3.2"
        stroke-linecap="round" />
    <path d="M91 53 Q105 53 108 68 Q111 83 97 90" fill="none" stroke="#AFA9EC" stroke-width="3.2"
        stroke-linecap="round" />
    <circle cx="43" cy="90" r="4.5" fill="#AFA9EC" />
    <circle cx="97" cy="90" r="4.5" fill="#AFA9EC" />
    <circle cx="70" cy="25" r="3.5" fill="#EEEDFE" opacity="0.7" />
    <circle cx="92" cy="30" r="2.8" fill="#EEEDFE" opacity="0.5" />
    <circle cx="48" cy="30" r="2.8" fill="#EEEDFE" opacity="0.5" />
    <text x="168" y="68" font-family="'Segoe UI', -apple-system, BlinkMacSystemFont, sans-serif"
        font-size="52" font-weight="600" fill="#ffffff" letter-spacing="-1">orion</text>
    <text x="170" y="104" font-family="'Segoe UI', -apple-system, BlinkMacSystemFont, sans-serif"
        font-size="42" font-weight="400" fill="#AFA9EC" letter-spacing="7">SOFTWARE</text>
</svg>