<svg width="80" height="80" viewBox="0 0 80 80" xmlns="http://www.w3.org/2000/svg">
  <rect width="80" height="80" rx="18" fill="#e0e0e0" />
  <g transform="translate(40, 40) scale(0.72) translate(-45.7279285, -38.973)">
    <g transform="translate(-39.448717,-32.30693)">
<path
         style="fill:#a5d2df"
         d="m 66.076297,109.61881 -1.328282,-0.63434 -1.220899,-1.35793 -1.2209,-1.35794 -1.076283,-2.18813 -1.076282,-2.18812 -0.721173,-2.57663 -0.721174,-2.576627 0.113304,-0.100197 0.113304,-0.100196 2.293838,-0.179524 2.293839,-0.179525 0.317209,1.533431 0.31721,1.533432 0.677284,1.830536 0.677285,1.83054 1.098084,1.14602 1.098084,1.14603 h 0.468688 0.468687 l 0.848958,-0.8599 0.848957,-0.85989 1.392807,-3.19596 1.392807,-3.195953 0.972923,-1.283649 0.972923,-1.283649 2.783548,-0.582063 2.783548,-0.582063 2.590445,-0.705715 2.590444,-0.705715 0.498544,0.158232 0.498543,0.158231 1.287563,1.408799 1.287563,1.408799 0.941285,1.951393 0.941286,1.951393 0.729006,2.24896 0.729006,2.24896 0.538005,0.97993 0.538006,0.97993 0.371801,0.14268 0.371802,0.14267 0.710844,-0.37026 0.710844,-0.37026 0.899438,-1.49191 0.899438,-1.4919 0.884756,-2.58413 0.884757,-2.584125 0.969013,-5.010689 0.96902,-5.010689 0.2895,-0.315734 0.2895,-0.315734 2.22072,-0.947227 2.22072,-0.947227 0.0734,0.07337 0.0734,0.07337 -0.64562,2.644801 -0.64563,2.6448 -0.6598,2.910417 -0.65981,2.910417 -0.81256,2.645833 -0.81257,2.645827 -1.16307,2.38874 -1.16307,2.38873 -1.358147,1.52381 -1.358148,1.52381 -1.017772,0.51923 -1.017772,0.51923 H 94.38948 93.439758 l -0.766933,-0.3966 -0.766934,-0.3966 -0.652646,-0.86017 -0.652647,-0.86018 -1.391411,-3.0427 -1.391412,-3.04271 -0.765328,-1.248465 -0.765327,-1.248464 -0.974604,-0.764649 -0.974604,-0.764649 -1.015873,-0.330327 -1.015873,-0.330326 -0.829637,0.165927 -0.829636,0.165927 -1.026298,0.711225 -1.026297,0.711225 -0.995298,1.466288 -0.995298,1.466288 -1.257579,2.51354 -1.257579,2.51354 -0.919765,1.26037 -0.919766,1.26038 -1.13834,0.66711 -1.138339,0.66711 -1.283878,0.13625 -1.283878,0.13625 z M 51.679772,94.076549 49.184131,93.835819 47.083224,93.304544 44.982317,92.77327 43.586591,92.134285 42.190865,91.4953 41.11949,90.423925 l -1.071375,-1.071374 -0.299699,-1.112998 -0.299699,-1.112997 0.299089,-1.187789 0.299089,-1.187789 0.758075,-1.101825 0.758076,-1.101823 -0.08782,-0.865364 -0.08782,-0.865365 0.617872,-0.803221 0.617872,-0.803221 1.142349,0.299655 1.14235,0.299656 1.660208,0.891796 1.660208,0.891796 1.777228,0.619597 1.777227,0.619597 1.793313,0.367362 1.793313,0.367362 2.027085,0.478047 2.027085,0.478048 1.625219,0.449431 1.625218,0.449431 1.641188,1.104125 1.641188,1.104125 1.380544,1.968834 1.380544,1.968834 0.738665,0.807703 0.738665,0.807703 h -0.89964 -0.89964 l -0.75105,-0.3966 -0.751051,-0.3966 -0.54172,-0.738664 -0.54172,-0.738665 -0.296275,-0.917654 -0.296275,-0.917654 0.0525,-1.170174 0.0525,-1.170173 0.248986,-1.277392 0.248986,-1.277392 -0.123872,-0.28031 -0.123873,-0.28031 -1.1639,0.01537 -1.1639,0.01537 -0.950168,0.239566 -0.950168,0.239566 -0.795084,0.644373 -0.795084,0.644373 -0.727323,0.955311 -0.727325,0.955312 -0.726837,2.178743 -0.72684,2.178743 -0.463963,1.177227 -0.463964,1.177228 -0.787894,1.100731 -0.787894,1.100732 -0.747422,0.41642 -0.747422,0.41642 -0.791478,0.0564 -0.791478,0.0564 z M 53.249307,89.586059 53.06412,89.039863 52.878935,88.493666 l -0.08467,-2.800614 -0.08467,-2.800614 0.53243,-2.438648 0.53243,-2.438647 0.964738,-2.211378 0.964738,-2.211379 0.735348,-0.838001 0.735348,-0.838001 h 1.178298 1.178298 l 0.798641,0.447974 0.798642,0.447974 0.658855,0.794843 0.658855,0.794843 0.561457,1.497451 0.561457,1.497451 0.319363,1.834795 0.319363,1.834795 -0.0065,1.397294 -0.0065,1.397294 -0.381828,1.526175 -0.381828,1.526175 -0.341699,0.393882 -0.341699,0.393882 -0.467013,-0.276753 -0.467013,-0.276753 -0.201717,-1.296743 -0.201717,-1.296743 -0.007,-1.266264 -0.007,-1.266264 -0.30876,-0.919939 -0.30876,-0.91994 -0.523387,-0.61734 -0.523387,-0.61734 h -0.747829 -0.74783 l -0.320485,0.386504 -0.320485,0.386504 -0.454633,1.526374 -0.454633,1.526374 -0.160972,1.971697 -0.160973,1.971697 0.136964,1.367011 0.136964,1.367011 0.35536,1.019591 0.35536,1.019591 0.389135,0.545351 0.389135,0.54535 -0.808379,-0.0299 -0.808379,-0.0299 z"
         id="path26" /><path
         style="fill:#91b3ca"
         d="m 66.673792,109.80248 -1.259954,-0.38738 -1.434829,-1.43483 -1.434829,-1.43483 -1.205433,-2.45884 -1.205433,-2.45884 -0.693093,-2.462244 -0.693092,-2.462248 0.09539,-0.08989 0.09539,-0.08989 2.222445,-0.09369 2.222444,-0.09369 0.623778,2.347876 0.623778,2.347876 0.837649,1.57159 0.837649,1.57159 0.651289,0.5123 0.651289,0.51231 h 0.637803 0.637804 l 0.664981,-0.66498 0.664982,-0.66498 0.807237,-1.78242 0.807237,-1.78241 0.884662,-1.919703 0.884662,-1.919701 0.687225,-0.900997 0.687224,-0.900997 2.037097,-0.43868 2.037098,-0.43868 3.519195,-0.911003 3.519195,-0.911004 0.913753,0.696952 0.913752,0.696953 0.891641,1.224471 0.891641,1.22447 0.595448,1.178736 0.595448,1.178736 1.055359,3.054597 1.055358,3.0546 0.517101,0.7276 0.517101,0.72761 h 0.546054 0.546055 l 0.870607,-0.92312 0.870607,-0.92311 0.817805,-1.73089 0.817806,-1.73089 0.671746,-2.306932 0.671745,-2.306937 0.791301,-4.101042 0.79131,-4.101041 0.11477,-0.550719 0.11478,-0.550718 2.26195,-1.007889 2.26195,-1.007889 0.15037,0.150361 0.15036,0.150362 -0.97102,4.186371 -0.97102,4.186371 -0.89761,3.239437 -0.89761,3.239438 -0.85397,2.051317 -0.85396,2.05132 -1.3388,1.96834 -1.338793,1.96834 -1.267966,0.91078 -1.267966,0.91078 -1.178819,0.13287 -1.178818,0.13287 -1.050408,-0.69512 -1.050408,-0.69513 -2.102012,-4.30033 -2.102013,-4.300329 -0.976082,-1.133605 -0.976082,-1.133605 -1.019364,-0.520041 -1.019364,-0.520041 h -0.947123 -0.947123 l -1.019364,0.520041 -1.019364,0.520041 -0.92402,1.079509 -0.924019,1.079509 -1.816388,3.467681 -1.816389,3.46768 -1.280352,1.41181 -1.280352,1.41182 -1.347357,0.40012 -1.347358,0.40012 -0.282707,-0.0184 -0.282707,-0.0184 z M 49.964501,93.811076 48.399424,93.566079 46.439403,93.028355 44.479382,92.490631 43.447774,91.964343 42.416166,91.438056 41.443357,90.583918 40.470548,89.729781 40.113084,88.874249 39.75562,88.018718 V 86.90313 85.787542 l 0.531507,-1.097946 0.531507,-1.097947 0.697273,-0.639235 0.697274,-0.639234 -0.421658,0.661458 -0.421658,0.661459 -0.166822,1.72996 -0.166822,1.729959 0.222808,0.51394 0.222808,0.513939 0.521507,0.683815 0.521507,0.683815 0.670571,0.613004 0.670572,0.613004 0.888136,0.37444 0.888137,0.374439 h 0.558881 0.558882 l 0.665643,-0.39986 0.665644,-0.39986 0.392423,-0.626404 0.392423,-0.626404 0.366679,-1.428015 0.366679,-1.428016 0.166942,-0.900594 0.166942,-0.900595 0.496236,-1.830188 0.496236,-1.830187 0.35939,-0.849783 0.359391,-0.849783 0.517213,-0.673244 0.517212,-0.673245 0.46085,-0.241702 0.46085,-0.241702 0.648328,0.2164 0.648328,0.216401 0.515083,1.61308 0.515084,1.613081 0.02229,1.519249 0.02229,1.51925 -0.455762,1.578552 -0.455762,1.578552 -0.45704,1.036795 -0.45704,1.036795 -0.764993,1.072583 -0.764993,1.072584 -0.654552,0.631799 -0.654552,0.6318 -1.033428,0.513736 -1.033428,0.513737 -1.320446,0.172422 -1.320446,0.172422 -0.832637,-0.141658 -0.832637,-0.141658 z"
         id="path25" /><path
         style="fill:#54b3c8"
         d="m 65.988321,109.46717 -0.887091,-0.47279 -1.097284,-1.0832 -1.097284,-1.0832 -0.893546,-1.47787 -0.893547,-1.47786 -0.637983,-1.75762 -0.637984,-1.75763 -0.500905,-1.807576 -0.500905,-1.807578 0.19064,-0.117822 0.190639,-0.117822 2.076511,-0.06063 2.076511,-0.06063 0.467865,1.827662 0.467865,1.827656 0.578653,1.53593 0.578654,1.53593 0.992903,1.04376 0.992903,1.04376 h 0.687671 0.687671 l 0.679407,-0.59531 0.679406,-0.59532 1.560447,-3.48952 1.560448,-3.489525 0.822732,-1.195801 0.822732,-1.1958 0.987064,-0.166671 0.987064,-0.16667 4.630209,-1.145932 4.630208,-1.145932 1.617872,1.648463 1.617872,1.648464 0.925588,1.968215 0.925587,1.968216 0.847206,2.565903 0.847206,2.56591 0.531142,0.67524 0.531142,0.67524 h 0.621638 0.621638 l 0.937189,-1.0949 0.937189,-1.09489 0.789493,-1.89645 0.789493,-1.896445 0.677042,-2.336333 0.677048,-2.336333 0.8225,-4.298576 0.82251,-4.298576 2.24463,-0.974889 2.24464,-0.97489 0.10638,0.106386 0.10639,0.106385 -1.43768,6.095252 -1.43767,6.095252 -0.69257,2.084398 -0.69256,2.084399 -1.11129,2.23797 -1.111292,2.23798 -1.719791,1.77576 -1.719792,1.77575 -1.10051,0.32045 -1.10051,0.32044 -0.751501,-0.18861 -0.751502,-0.18862 -1.075187,-1.12212 -1.075187,-1.12213 -1.137532,-2.62656 -1.137531,-2.62656 -0.671758,-1.17393 -0.671758,-1.173932 -1.084345,-1.180231 -1.084346,-1.180232 -0.851397,-0.357817 -0.851398,-0.357817 h -1.079971 -1.07997 l -0.746204,0.385878 -0.746204,0.385877 -1.158886,1.289351 -1.158886,1.289351 -1.807375,3.461562 -1.807375,3.46157 -0.933033,1.09004 -0.933033,1.09004 -1.019364,0.52004 -1.019364,0.52004 -1.399603,-0.0111 -1.399603,-0.0111 z M 50.206662,93.784944 48.354578,93.549688 46.41698,93.020159 44.479382,92.490631 43.447774,91.964343 42.416166,91.438056 41.443357,90.583918 40.470548,89.729781 40.113084,88.874249 39.75562,88.018718 v -1.103997 -1.103997 l 0.577374,-1.15608 0.577373,-1.156079 0.486802,-0.440549 0.486802,-0.44055 -0.428645,1.025892 -0.428645,1.025892 0.147742,0.910426 0.147742,0.910426 0.605794,0.525238 0.605794,0.525238 0.827979,0.502208 0.827979,0.502208 h 0.532611 0.532612 l 0.838779,-0.49469 0.838779,-0.49469 0.74737,-0.915227 0.74737,-0.915227 0.541611,-1.566692 0.541611,-1.566691 0.254213,-1.268434 0.254213,-1.268433 0.717688,-3.209806 0.717688,-3.209806 0.434241,-1.340439 0.434242,-1.340438 0.495598,-0.986572 0.495599,-0.986573 0.539546,-1.033428 0.539545,-1.033428 -0.129544,1.141063 -0.129544,1.141064 -0.241977,2.056674 -0.241977,2.056675 -0.406362,1.692385 -0.406362,1.692385 -0.383585,1.21134 -0.383585,1.211339 -0.836906,1.287254 -0.836906,1.287254 -0.608108,0.461684 -0.608108,0.461683 -0.549895,0.08179 -0.549895,0.08179 -0.523587,-0.25898 -0.523587,-0.25898 -0.780503,-0.831265 -0.780503,-0.831265 -1.33022,-4.070547 -1.33022,-4.070548 -0.489761,-1.068499 -0.489761,-1.068499 -0.403971,-0.480794 -0.403971,-0.480795 -0.442535,0.01417 -0.442534,0.01417 -0.245153,0.689499 -0.245153,0.689499 -0.04572,1.418208 -0.04572,1.418207 0.356442,1.647537 0.356442,1.647537 0.599488,1.82912 0.599488,1.82912 0.325496,1.143687 0.325497,1.143688 -0.853011,1.659145 -0.853011,1.659146 -0.837644,0.774001 -0.837644,0.774001 -1.329811,0.628504 -1.329811,0.628504 -1.422364,0.261326 -1.422364,0.261326 z"
         id="path24" /><path
         style="fill:#5e90b2"
         d="m 65.988321,109.46717 -0.887091,-0.47279 -1.097284,-1.0832 -1.097284,-1.0832 -0.893546,-1.47787 -0.893547,-1.47786 -0.637983,-1.75762 -0.637984,-1.75763 -0.500905,-1.807576 -0.500905,-1.807578 0.19064,-0.117822 0.190639,-0.117822 2.076511,-0.06063 2.076511,-0.06063 0.467865,1.827662 0.467865,1.827656 0.578653,1.53593 0.578654,1.53593 0.992903,1.04376 0.992903,1.04376 h 0.687671 0.687671 l 0.679407,-0.59531 0.679406,-0.59532 1.560447,-3.48952 1.560448,-3.489525 0.822732,-1.195801 0.822732,-1.1958 0.987064,-0.166671 0.987064,-0.16667 4.630209,-1.145932 4.630208,-1.145932 1.617872,1.648463 1.617872,1.648464 0.925588,1.968215 0.925587,1.968216 0.847206,2.565903 0.847206,2.56591 0.531142,0.67524 0.531142,0.67524 h 0.621638 0.621638 l 0.937189,-1.0949 0.937189,-1.09489 0.789493,-1.89645 0.789493,-1.896445 0.677042,-2.336333 0.677048,-2.336333 0.8225,-4.298576 0.82251,-4.298576 2.24463,-0.974889 2.24464,-0.97489 0.10638,0.106386 0.10639,0.106385 -1.43768,6.095252 -1.43767,6.095252 -0.69257,2.084398 -0.69256,2.084399 -1.11129,2.23797 -1.111292,2.23798 -1.719791,1.77576 -1.719792,1.77575 -1.10051,0.32045 -1.10051,0.32044 -0.751501,-0.18861 -0.751502,-0.18862 -1.075187,-1.12212 -1.075187,-1.12213 -1.137532,-2.62656 -1.137531,-2.62656 -0.671758,-1.17393 -0.671758,-1.173932 -1.084345,-1.180231 -1.084346,-1.180232 -0.851397,-0.357817 -0.851398,-0.357817 h -1.079971 -1.07997 l -0.746204,0.385878 -0.746204,0.385877 -1.158886,1.289351 -1.158886,1.289351 -1.807375,3.461562 -1.807375,3.46157 -0.933033,1.09004 -0.933033,1.09004 -1.019364,0.52004 -1.019364,0.52004 -1.399603,-0.0111 -1.399603,-0.0111 z m -13.929576,-15.551333 -0.79375,-0.09202 -1.984375,-0.2947 -1.984375,-0.2947 -1.606584,-0.495778 -1.606585,-0.495778 -1.596146,-1.031639 -1.596146,-1.03164 -0.567582,-1.172467 -0.567582,-1.172468 0.0058,-0.908652 0.0058,-0.908652 0.495806,-1.091838 0.495806,-1.091837 0.259091,-0.160127 0.259091,-0.160127 -0.128717,1.141973 -0.128717,1.141974 0.427816,0.827305 0.427817,0.827305 0.582083,0.665779 0.582084,0.665779 0.853685,0.564887 0.853685,0.564887 0.438994,0.06911 0.438994,0.06911 0.700591,-0.172348 0.700591,-0.172349 0.764726,-0.598849 0.764726,-0.598849 0.500826,-0.751218 0.500825,-0.751219 -0.05233,-0.340338 -0.05233,-0.340338 -0.622381,-0.07374 -0.622381,-0.07374 -0.660563,0.196804 -0.660563,0.196805 -0.388247,0.318575 -0.388247,0.318576 -0.165374,0.553399 -0.165374,0.553399 -0.191981,0.745873 -0.191981,0.745873 -0.66519,1.101243 -0.66519,1.101243 -0.576016,0.716665 -0.576016,0.716664 -0.857845,0.427318 -0.857845,0.427318 -1.061325,0.181566 -1.061325,0.181566 z m 11.754422,-27.870135 -0.21279,-0.637467 -0.607104,-2.436654 -0.607105,-2.436653 -0.91795,-3.021936 -0.91795,-3.021937 -1.006009,-2.949636 -1.006009,-2.949636 -0.748318,-2.677854 -0.748318,-2.677855 -0.347596,-2.55763 -0.347596,-2.55763 0.285176,-2.175223 0.285176,-2.175223 0.704069,-2.033244 0.704068,-2.033244 -0.761082,-0.77765 -0.761082,-0.777649 -0.720389,0.189302 -0.720388,0.189302 -1.437243,1.016347 -1.437243,1.016346 -1.102999,1.519161 -1.102999,1.519161 -0.917239,2.034288 -0.917239,2.034287 -0.461438,2.057147 -0.461438,2.057147 -0.03554,0.82572 -0.03554,0.82572 0.164432,0.862823 0.164432,0.862827 0.449977,1.001823 0.449977,1.001823 0.433943,0.581194 0.433943,0.581195 0.38735,0.101565 0.38735,0.101565 0.635916,-0.246284 0.635916,-0.246284 0.546191,-0.655111 0.546191,-0.655112 0.35535,-0.929141 0.35535,-0.929141 0.192567,-1.292808 0.192568,-1.292809 0.133938,-2.341531 0.133938,-2.34153 0.237772,-1.443099 0.237772,-1.443099 0.222165,0.801203 0.222165,0.801203 0.32963,1.802911 0.32963,1.802911 0.74637,2.64173 0.74637,2.64173 0.422065,1.831862 0.422065,1.831862 0.347721,2.123778 0.347721,2.123778 0.388797,2.596792 0.388797,2.596792 0.986063,0.591707 0.986063,0.591707 0.716837,0.08349 0.716838,0.08349 0.730027,-0.21568 0.730027,-0.21568 1.097072,-0.953294 1.097072,-0.953294 0.508242,-0.539821 0.508242,-0.53982 0.307495,0.360599 0.307495,0.360599 -0.05709,0.807009 -0.05709,0.807009 -0.441941,1.307791 -0.441941,1.307791 -0.574851,1.039696 -0.57485,1.039695 -0.700146,0.91294 -0.700146,0.91294 -0.636562,0.666434 -0.636562,0.666433 -0.966279,0.660975 -0.966279,0.660976 -0.869826,0.274815 -0.869826,0.274815 z"
         id="path23" /><path
         style="fill:#33a3c1"
         d="m 66.478537,109.63346 -0.926042,-0.30267 -1.516144,-1.53782 -1.516144,-1.53783 -1.178346,-2.44598 -1.178347,-2.44598 -0.588721,-2.184844 -0.588722,-2.184843 0.108212,-0.09808 0.108212,-0.09808 2.04006,-0.186061 2.04006,-0.186061 0.166108,0.749198 0.166107,0.749198 0.542267,1.719792 0.542267,1.719791 0.521233,1.05833 0.521233,1.05834 0.817131,0.85989 0.817131,0.8599 h 0.84673 0.84673 l 0.781495,-0.89007 0.781495,-0.89008 0.865896,-2.08649 0.865896,-2.086486 0.745174,-1.481928 0.745175,-1.481928 0.676059,-0.803451 0.676059,-0.80345 0.99368,-0.175536 0.993681,-0.175536 4.320232,-1.056058 4.320232,-1.056058 0.496536,0.157595 0.496536,0.157594 1.149428,1.27844 1.149427,1.278441 0.847119,1.589356 0.847118,1.589357 1.06688,3.094068 1.06688,3.09407 0.418465,0.63866 0.418465,0.63866 h 0.778235 0.778235 l 0.788722,-0.8599 0.788721,-0.8599 0.751213,-1.5875 0.751212,-1.5875 0.824521,-2.576977 0.824521,-2.576981 0.7944,-4.302186 0.79441,-4.302186 10e-4,-0.209503 0.001,-0.209504 1.78594,-0.807997 1.78594,-0.807997 0.62551,-0.244204 0.62551,-0.244204 -0.18159,0.467954 -0.1816,0.467955 -1.1991,5.291667 -1.19909,5.291666 -0.8994,2.748467 -0.89939,2.74847 -1.1038,2.07161 -1.103807,2.07162 -1.172787,1.34067 -1.172787,1.34067 -1.019234,0.51998 -1.019234,0.51997 H 94.229156 93.11911 l -0.907389,-0.6921 -0.907388,-0.6921 -2.077506,-4.30026 -2.077506,-4.300262 -1.283601,-1.317824 -1.283601,-1.317825 -1.312729,-0.309966 -1.312728,-0.309966 -0.849381,0.248667 -0.849381,0.248668 -0.937689,0.71521 -0.937688,0.715209 -1.162355,1.753671 -1.162354,1.753668 -1.110098,2.27701 -1.110098,2.27701 -0.967561,1.27248 -0.967562,1.27248 -1.022693,0.52718 -1.022692,0.52718 -1.226266,0.0775 -1.226266,0.0775 z m -14.419792,-15.717623 -0.79375,-0.09202 -1.984375,-0.2947 -1.984375,-0.2947 -1.606584,-0.495778 -1.606585,-0.495778 -1.596146,-1.031639 -1.596146,-1.03164 -0.567582,-1.172467 -0.567582,-1.172468 0.0058,-0.908652 0.0058,-0.908652 0.495806,-1.091838 0.495806,-1.091837 0.259091,-0.160127 0.259091,-0.160127 -0.128717,1.141973 -0.128717,1.141974 0.427816,0.827305 0.427817,0.827305 0.582083,0.665779 0.582084,0.665779 0.853685,0.564887 0.853685,0.564887 0.438994,0.06911 0.438994,0.06911 0.700591,-0.172348 0.700591,-0.172349 0.764726,-0.598849 0.764726,-0.598849 0.500826,-0.751218 0.500825,-0.751219 -0.05233,-0.340338 -0.05233,-0.340338 -0.622381,-0.07374 -0.622381,-0.07374 -0.660563,0.196804 -0.660563,0.196805 -0.388247,0.318575 -0.388247,0.318576 -0.165374,0.553399 -0.165374,0.553399 -0.191981,0.745873 -0.191981,0.745873 -0.66519,1.101243 -0.66519,1.101243 -0.576016,0.716665 -0.576016,0.716664 -0.857845,0.427318 -0.857845,0.427318 -1.061325,0.181566 -1.061325,0.181566 z"
         id="path22" /><path
         style="fill:#33a7bc"
         d="m 66.478537,109.63346 -0.926042,-0.30267 -1.516144,-1.53782 -1.516144,-1.53783 -1.178346,-2.44598 -1.178347,-2.44598 -0.588721,-2.184844 -0.588722,-2.184843 0.108212,-0.09808 0.108212,-0.09808 2.04006,-0.186061 2.04006,-0.186061 0.166108,0.749198 0.166107,0.749198 0.542267,1.719792 0.542267,1.719791 0.521233,1.05833 0.521233,1.05834 0.817131,0.85989 0.817131,0.8599 h 0.84673 0.84673 l 0.781495,-0.89007 0.781495,-0.89008 0.865896,-2.08649 0.865896,-2.086486 0.745174,-1.481928 0.745175,-1.481928 0.676059,-0.803451 0.676059,-0.80345 0.99368,-0.175536 0.993681,-0.175536 4.320232,-1.056058 4.320232,-1.056058 0.496536,0.157595 0.496536,0.157594 1.149428,1.27844 1.149427,1.278441 0.847119,1.589356 0.847118,1.589357 1.06688,3.094068 1.06688,3.09407 0.418465,0.63866 0.418465,0.63866 h 0.778235 0.778235 l 0.788722,-0.8599 0.788721,-0.8599 0.751213,-1.5875 0.751212,-1.5875 0.824521,-2.576977 0.824521,-2.576981 0.7944,-4.302186 0.79441,-4.302186 10e-4,-0.209503 0.001,-0.209504 1.78594,-0.807997 1.78594,-0.807997 0.62551,-0.244204 0.62551,-0.244204 -0.18159,0.467954 -0.1816,0.467955 -1.1991,5.291667 -1.19909,5.291666 -0.8994,2.748467 -0.89939,2.74847 -1.1038,2.07161 -1.103807,2.07162 -1.172787,1.34067 -1.172787,1.34067 -1.019234,0.51998 -1.019234,0.51997 H 94.229156 93.11911 l -0.907389,-0.6921 -0.907388,-0.6921 -2.077506,-4.30026 -2.077506,-4.300262 -1.283601,-1.317824 -1.283601,-1.317825 -1.312729,-0.309966 -1.312728,-0.309966 -0.849381,0.248667 -0.849381,0.248668 -0.937689,0.71521 -0.937688,0.715209 -1.162355,1.753671 -1.162354,1.753668 -1.110098,2.27701 -1.110098,2.27701 -0.967561,1.27248 -0.967562,1.27248 -1.022693,0.52718 -1.022692,0.52718 -1.226266,0.0775 -1.226266,0.0775 z m -14.419792,-15.717623 -0.79375,-0.09202 -1.984375,-0.2947 -1.984375,-0.2947 -1.606584,-0.495778 -1.606585,-0.495778 -1.596146,-1.031639 -1.596146,-1.03164 -0.567582,-1.172467 -0.567582,-1.172468 0.0058,-0.908652 0.0058,-0.908652 0.495806,-1.091838 0.495806,-1.091837 0.292133,-0.180549 0.292133,-0.180549 -0.160035,1.16428 -0.160037,1.16428 0.35144,0.784684 0.35144,0.784685 0.680841,0.69971 0.680841,0.69971 0.848621,0.574188 0.848621,0.574188 0.438994,0.06911 0.438994,0.06911 0.700591,-0.172348 0.700591,-0.172349 0.764726,-0.598849 0.764726,-0.598849 0.500826,-0.751218 0.500825,-0.751219 -0.05233,-0.340338 -0.05233,-0.340338 -0.622381,-0.07374 -0.622381,-0.07374 -0.660563,0.196804 -0.660563,0.196805 -0.388247,0.318575 -0.388247,0.318576 -0.165374,0.553399 -0.165374,0.553399 -0.191981,0.745873 -0.191981,0.745873 -0.66519,1.101243 -0.66519,1.101243 -0.576016,0.716665 -0.576016,0.716664 -0.857845,0.427318 -0.857845,0.427318 -1.061325,0.181566 -1.061325,0.181566 z"
         id="path21" /><path
         style="fill:#13598c"
         d="m 66.478537,109.63346 -0.926042,-0.30267 -1.516144,-1.53782 -1.516144,-1.53783 -1.178346,-2.44598 -1.178347,-2.44598 -0.588721,-2.184844 -0.588722,-2.184843 0.108212,-0.09808 0.108212,-0.09808 2.04006,-0.186061 2.04006,-0.186061 0.166108,0.749198 0.166107,0.749198 0.542267,1.719792 0.542267,1.719791 0.521233,1.05833 0.521233,1.05834 0.817131,0.85989 0.817131,0.8599 h 0.84673 0.84673 l 0.781495,-0.89007 0.781495,-0.89008 0.865896,-2.08649 0.865896,-2.086486 0.745174,-1.481928 0.745175,-1.481928 0.676059,-0.803451 0.676059,-0.80345 0.99368,-0.175536 0.993681,-0.175536 4.320232,-1.056058 4.320232,-1.056058 0.496536,0.157595 0.496536,0.157594 1.149428,1.27844 1.149427,1.278441 0.847119,1.589356 0.847118,1.589357 1.06688,3.094068 1.06688,3.09407 0.418465,0.63866 0.418465,0.63866 h 0.778235 0.778235 l 0.788722,-0.8599 0.788721,-0.8599 0.751213,-1.5875 0.751212,-1.5875 0.824521,-2.576977 0.824521,-2.576981 0.7944,-4.302186 0.79441,-4.302186 10e-4,-0.209503 0.001,-0.209504 1.78594,-0.807997 1.78594,-0.807997 0.62551,-0.244204 0.62551,-0.244204 -0.18159,0.467954 -0.1816,0.467955 -1.1991,5.291667 -1.19909,5.291666 -0.8994,2.748467 -0.89939,2.74847 -1.1038,2.07161 -1.103807,2.07162 -1.172787,1.34067 -1.172787,1.34067 -1.019234,0.51998 -1.019234,0.51997 H 94.229156 93.11911 l -0.907389,-0.6921 -0.907388,-0.6921 -2.077506,-4.30026 -2.077506,-4.300262 -1.283601,-1.317824 -1.283601,-1.317825 -1.312729,-0.309966 -1.312728,-0.309966 -0.849381,0.248667 -0.849381,0.248668 -0.937689,0.71521 -0.937688,0.715209 -1.162355,1.753671 -1.162354,1.753668 -1.110098,2.27701 -1.110098,2.27701 -0.967561,1.27248 -0.967562,1.27248 -1.022693,0.52718 -1.022692,0.52718 -1.226266,0.0775 -1.226266,0.0775 z m -9.89677,-24.601843 -0.730682,-2.440938 -1.003226,-2.519999 -1.003226,-2.52 -2.047774,-4.497917 -2.047773,-4.497917 -0.901825,-2.321011 -0.901824,-2.321011 -0.784338,-3.041966 -0.784338,-3.041966 -0.313712,-3.009577 -0.313712,-3.009577 0.30449,-2.477693 0.304491,-2.477694 0.656998,-1.931603 0.656999,-1.931603 0.572419,-1.313518 0.572419,-1.313517 0.415968,-0.743615 0.415969,-0.743615 0.491367,-0.828956 0.491367,-0.828955 0.644607,-0.772087 0.644607,-0.772086 0.444551,-0.583661 0.444552,-0.583661 -0.203308,0.367415 -0.20331,0.367415 -1.054907,1.02644 -1.054907,1.026441 -1.141608,1.45277 -1.141608,1.452771 -1.034567,1.312411 -1.034567,1.312411 -0.489167,1.305318 -0.489168,1.305318 -0.246912,1.57178 -0.246913,1.57178 0.01368,1.20344 0.01368,1.203439 0.365019,1.222606 0.365019,1.222605 1.530407,1.779583 1.530407,1.779583 0.520408,0.563016 0.520408,0.563017 0.610009,0.879843 0.610009,0.879843 0.200416,0.710961 0.200416,0.71096 -0.332585,0.330065 -0.332585,0.330065 -0.783556,0.02142 -0.783556,0.02142 -0.818587,-0.314837 -0.818587,-0.314837 -0.737429,-1.3622 -0.737429,-1.3622 -0.323812,-0.894339 -0.323812,-0.894339 -0.300798,-1.903183 -0.300797,-1.903183 -0.572132,-2.362486 -0.572132,-2.362486 -0.524168,-1.673606 -0.524167,-1.673607 -0.33221,-1.779312 -0.33221,-1.779312 -0.113046,-1.265575 -0.113046,-1.265575 0.112446,-1.006423 0.112447,-1.006422 0.139579,-0.254383 0.13958,-0.254383 0.424178,-1.117983 0.424178,-1.117983 0.645106,-1.274739 0.645106,-1.274738 0.57417,-0.815602 0.57417,-0.815603 -0.141446,0.800116 -0.141446,0.800116 -0.304567,1.16685 -0.304568,1.16685 -0.189617,1.36223 -0.189617,1.362229 -0.170531,2.044592 -0.170532,2.044592 0.01619,1.499054 0.01619,1.499055 0.178371,1.301245 0.178371,1.301246 0.362442,1.358545 0.362442,1.358544 0.822377,1.86448 0.822377,1.864479 0.930569,1.582161 0.930569,1.582162 0.414209,0.707975 0.414209,0.707976 -0.435389,0.186758 -0.435389,0.186758 -1.138456,-0.367335 -1.138456,-0.367335 -1.045478,-0.907541 -1.045478,-0.907541 z"
         id="path20" />
    </g>
  </g>
</svg>
