<?xml version="1.0" encoding="UTF-8" standalone="no"?>
<svg
   width="275.69473"
   height="287.75912"
   viewBox="0 0 275.69473 287.75912"
   version="1.1"
   id="svg13"
   xmlns="http://www.w3.org/2000/svg"
   xmlns:svg="http://www.w3.org/2000/svg">
  <defs
     id="defs2">
    <linearGradient
       id="a"
       x1="502.39001"
       x2="524.646"
       y1="640.99298"
       y2="372.56601"
       gradientUnits="userSpaceOnUse"
       gradientTransform="translate(-376.09164,-354.832)">
      <stop
         offset="0"
         stop-color="#5c318e"
         id="stop1" />
      <stop
         offset="1"
         stop-color="#a23d96"
         id="stop2" />
    </linearGradient>
  </defs>
  <path
     fill="url(#a)"
     d="m 175.51239,18.686 q 5.275,1.495 10.459,3.283 c 34.34,11.859 61.142,37.99 76.772,70.461 a 136.1,136.1 0 0 1 4.995,103.797 136.25,136.25 0 0 1 -70.282,78.203 140.33,140.33 0 0 1 -105.617,5.602 A 138.58,138.58 0 0 1 12.91036,208.835 137.25,137.25 0 0 1 8.4403604,103.333 133.28,133.28 0 0 1 78.77839,26.868 c 6.412,-2.964 14.84,-6.014 21.628,-7.644 a 215,215 0 0 0 1.729,10.499 c -9.47,2.979 -18.451,6.432 -27.14,11.323 a 125.7,125.7 0 0 0 -59.09603,75.252 c -9.2869996,33.715 -5.299,67.241 12.247,97.647 a 127.8,127.8 0 0 0 78.67203,59.097 126.25,126.25 0 0 0 96.079,-14.165 124.66,124.66 0 0 0 57.82,-76.821 126.86,126.86 0 0 0 -14.279,-96.665 c -15.305,-25.357 -42.944,-48.012 -71.997,-55.108 0.534,-4.16 0.844,-7.414 1.071,-11.597"
     id="path2"
     style="fill:url(#a)" />
  <path
     fill="#cf8fd9"
     d="m 137.46939,0 c 2.19,4.067 3.115,11.873 4.866,15.914 1.667,3.846 13.807,6.645 17.905,7.79 -15.177,2.502 -19.023,4.538 -21.56,19.895 l -0.888,0.53 c -1.783,-4.738 -2.037,-8.553 -5.179,-13.165 -4.223,-6.199 -13.347,-6.97 -20.423,-8.207 21.865,-2.284 19.897,-3.246 25.279,-22.757"
     id="path3" />
  <path
     fill="#b05ab5"
     d="m 187.53939,73.876 c 6.414,-0.29 11.886,4.594 12.326,10.999 0.44,6.405 -4.314,11.99 -10.708,12.58 a 11.822,11.822 0 0 1 -11.661,-17.048 11.82,11.82 0 0 1 10.043,-6.531"
     id="path4" />
  <path
     fill="#b05ab5"
     d="m 73.74239,151.838 a 11.763403,11.763403 0 1 1 6.295,22.669 c -6.249,1.709 -12.70403,-1.957 -14.43803,-8.199 -1.734,-6.243 1.907,-12.712 8.14303,-14.47"
     id="path5" />
  <path
     fill="#b05ab5"
     d="m 175.50739,208.924 c 6.393,-0.668 12.13,3.939 12.859,10.325 0.729,6.386 -3.823,12.167 -10.201,12.957 -6.466,0.801 -12.343,-3.826 -13.082,-10.299 -0.739,-6.474 3.944,-12.306 10.424,-12.983"
     id="path6" />
  <path
     fill="#b05ab5"
     d="m 119.03139,100.66 c 6.181,-1.337 12.288,2.546 13.699,8.711 1.411,6.165 -2.4,12.317 -8.548,13.801 a 11.549,11.549 0 1 1 -5.151,-22.512"
     id="path7" />
  <path
     fill="#b05ab5"
     d="m 123.40639,151.903 a 11.536241,11.536241 0 0 1 4.789,22.57 c -6.253,1.371 -12.427,-2.612 -13.756,-8.874 -1.329,-6.262 2.695,-12.409 8.967,-13.696"
     id="path8" />
  <path
     fill="#7e299b"
     d="m 139.14439,176.329 c 2.463,1.075 23.515,25.666 25.767,29.208 0.067,1.665 -0.144,1.339 -1.392,3.07 -3.106,-1.311 -23.665,-25.198 -25.913,-29.081 0.039,-1.795 0.209,-1.417 1.538,-3.197"
     id="path9" />
  <path
     fill="#7e299b"
     d="m 168.88639,91.211 c 0.985,-0.009 0.655,-0.007 1.637,0.389 0.569,1.573 0.57,0.815 0.076,2.348 -3.574,3.295 -24.527,10.715 -30.171,12.663 -1.313,-0.2 -1.217,-0.195 -2.208,-1.096 l 0.194,-0.993 c 2.355,-3.516 25.343,-11.484 30.472,-13.311"
     id="path10" />
  <path
     fill="#7e299b"
     d="m 107.82639,124.364 c 1.808,0.374 2.784,1.049 3.43,2.723 -0.818,2.042 -18.162,20.558 -20.743,23.245 -0.679,0.25 -1.254,0.076 -2.097,0.01 -0.463,-1.222 -0.247,-0.599 -0.644,-1.869 1.271,-3.675 16.365,-19.699 20.054,-24.109"
     id="path11" />
  <path
     fill="#7e299b"
     d="m 122.13639,129.786 c 1.232,0.192 1.126,0.192 2.306,0.593 1.958,3.01 2.744,13.018 0.443,16.121 -4.043,-2.689 -4.968,-11.816 -4.01,-16.043 z"
     id="path12" />
  <path
     fill="#7e299b"
     d="m 96.39439,160.287 c 3.141,-0.124 9.922,-1.155 11.418,2.061 -0.31,1.56 -0.523,1.616 -1.53,2.822 -3.248,-0.01 -9.702,0.465 -11.725,-2.226 0.479,-1.801 0.275,-1.206 1.837,-2.657"
     id="path13" />
</svg>
